HIERARCHY
ROOT Hips
{
  OFFSET 373.837 88.1643 177.628
  CHANNELS 6 Xposition Yposition Zposition Zrotation Xrotation Yrotation
  JOINT RightUpLeg
  {
    OFFSET -9.27602 -1.55371 -0.0617006
    CHANNELS 3 Zrotation Xrotation Yrotation
    JOINT RightLeg
    {
      OFFSET 0.0569767 -41.8713 0.0644562
      CHANNELS 3 Zrotation Xrotation Yrotation
      JOINT RightFoot
      {
        OFFSET -0.463049 -43.0064 -0.0336586
        CHANNELS 3 Zrotation Xrotation Yrotation
        End Site
        {
          OFFSET 0 -7.69 17.5
        }
      }
    }
  }
  JOINT LeftUpLeg
  {
    OFFSET 9.29312 -1.63815 0.0236341
    CHANNELS 3 Zrotation Xrotation Yrotation
    JOINT LeftLeg
    {
      OFFSET 0.0670365 -41.8776 -0.0578197
      CHANNELS 3 Zrotation Xrotation Yrotation
      JOINT LeftFoot
      {
        OFFSET 0.591956 -40.8352 0.210268
        CHANNELS 3 Zrotation Xrotation Yrotation
        End Site
        {
          OFFSET 0 -7.69 17.5
        }
      }
    }
  }
  JOINT Spine
  {
    OFFSET 0.0229142 14.2949 0.0394214
    CHANNELS 3 Zrotation Xrotation Yrotation
    JOINT Spine1
    {
      OFFSET 0.0328969 9.71943 0.0194292
      CHANNELS 3 Zrotation Xrotation Yrotation
      JOINT Spine2
      {
        OFFSET 0.0292955 10.1244 -0.00440821
        CHANNELS 3 Zrotation Xrotation Yrotation
        JOINT Spine3
        {
          OFFSET 0.024556 9.71184 0.0101567
          CHANNELS 3 Zrotation Xrotation Yrotation
          JOINT Neck
          {
            OFFSET 0.152325 10.3757 0.0664015
            CHANNELS 3 Zrotation Xrotation Yrotation
            JOINT Head
            {
              OFFSET 0.134553 9.4858 0.0499874
              CHANNELS 3 Zrotation Xrotation Yrotation
              End Site
              {
                OFFSET 0 15.95 0
              }
            }
          }
          JOINT RightShoulder
          {
            OFFSET -3.19519 6.89024 -0.0330231
            CHANNELS 3 Zrotation Xrotation Yrotation
            JOINT RightArm
            {
              OFFSET -12.6524 0.0927817 0.0603028
              CHANNELS 3 Zrotation Xrotation Yrotation
              JOINT RightForeArm
              {
                OFFSET -26.4983 -0.141459 0.202928
                CHANNELS 3 Zrotation Xrotation Yrotation
                JOINT RightHand
                {
                  OFFSET -25.9883 -0.0240172 0.0141731
                  CHANNELS 3 Zrotation Xrotation Yrotation
                  JOINT RightHandThumb1
                  {
                    OFFSET -2.48905 0.190105 3.12053
                    CHANNELS 3 Zrotation Xrotation Yrotation
                    JOINT RightHandThumb2
                    {
                      OFFSET -3.68274 0 0
                      CHANNELS 3 Zrotation Xrotation Yrotation
                      JOINT RightHandThumb3
                      {
                        OFFSET -2.55832 0 0
                        CHANNELS 3 Zrotation Xrotation Yrotation
                        End Site
                        {
                          OFFSET -2.194 0 0
                        }
                      }
                    }
                  }
                  JOINT RightInHandIndex
                  {
                    OFFSET -3.22368 0.508421 1.97842
                    CHANNELS 3 Zrotation Xrotation Yrotation
                    JOINT RightHandIndex1
                    {
                      OFFSET -5.21684 -0.091368 0.999158
                      CHANNELS 3 Zrotation Xrotation Yrotation
                      JOINT RightHandIndex2
                      {
                        OFFSET -3.61937 0 0
                        CHANNELS 3 Zrotation Xrotation Yrotation
                        JOINT RightHandIndex3
                        {
                          OFFSET -2.0521 0 0
                          CHANNELS 3 Zrotation Xrotation Yrotation
                          End Site
                          {
                            OFFSET -1.805 0 0
                          }
                        }
                      }
                    }
                  }
                  JOINT RightInHandMiddle
                  {
                    OFFSET -3.38211 0.517263 0.756737
                    CHANNELS 3 Zrotation Xrotation Yrotation
                    JOINT RightHandMiddle1
                    {
                      OFFSET -5.17411 -0.084 0.313895
                      CHANNELS 3 Zrotation Xrotation Yrotation
                      JOINT RightHandMiddle2
                      {
                        OFFSET -3.94947 0 0
                        CHANNELS 3 Zrotation Xrotation Yrotation
                        JOINT RightHandMiddle3
                        {
                          OFFSET -2.47579 0 0
                          CHANNELS 3 Zrotation Xrotation Yrotation
                          End Site
                          {
                            OFFSET -1.975 0 0
                          }
                        }
                      }
                    }
                  }
                  JOINT RightInHandRing
                  {
                    OFFSET -3.36516 0.537895 -0.128947
                    CHANNELS 3 Zrotation Xrotation Yrotation
                    JOINT RightHandRing1
                    {
                      OFFSET -4.63474 -0.022105 -0.478947
                      CHANNELS 3 Zrotation Xrotation Yrotation
                      JOINT RightHandRing2
                      {
                        OFFSET -3.44238 0 0
                        CHANNELS 3 Zrotation Xrotation Yrotation
                        JOINT RightHandRing3
                        {
                          OFFSET -2.3881 0 0
                          CHANNELS 3 Zrotation Xrotation Yrotation
                          End Site
                          {
                            OFFSET -1.857 0 0
                          }
                        }
                      }
                    }
                  }
                  JOINT RightInHandPinky
                  {
                    OFFSET -3.16105 0.469368 -1.20179
                    CHANNELS 3 Zrotation Xrotation Yrotation
                    JOINT RightHandPinky1
                    {
                      OFFSET -4.14105 -0.022105 -1.09053
                      CHANNELS 3 Zrotation Xrotation Yrotation
                      JOINT RightHandPinky2
                      {
                        OFFSET -2.75653 0 0
                        CHANNELS 3 Zrotation Xrotation Yrotation
                        JOINT RightHandPinky3
                        {
                          OFFSET -1.74189 0 0
                          CHANNELS 3 Zrotation Xrotation Yrotation
                          End Site
                          {
                            OFFSET -1.645 0 0
                          }
                        }
                      }
                    }
                  }
                }
              }
            }
          }
          JOINT LeftShoulder
          {
            OFFSET 3.28609 6.87948 -0.0751467
            CHANNELS 3 Zrotation Xrotation Yrotation
            JOINT LeftArm
            {
              OFFSET 12.831 -0.0663252 -0.1321
              CHANNELS 3 Zrotation Xrotation Yrotation
              JOINT LeftForeArm
              {
                OFFSET 26.5106 -0.082189 -0.0903645
                CHANNELS 3 Zrotation Xrotation Yrotation
                JOINT LeftHand
                {
                  OFFSET 25.9965 -0.0307163 -0.0535747
                  CHANNELS 3 Zrotation Xrotation Yrotation
                  JOINT LeftHandThumb1
                  {
                    OFFSET 2.48905 0.190105 3.12053
                    CHANNELS 3 Zrotation Xrotation Yrotation
                    JOINT LeftHandThumb2
                    {
                      OFFSET 3.68274 0 0
                      CHANNELS 3 Zrotation Xrotation Yrotation
                      JOINT LeftHandThumb3
                      {
                        OFFSET 2.55832 0 0
                        CHANNELS 3 Zrotation Xrotation Yrotation
                        End Site
                        {
                          OFFSET 2.194 0 0
                        }
                      }
                    }
                  }
                  JOINT LeftInHandIndex
                  {
                    OFFSET 3.22368 0.508421 1.97842
                    CHANNELS 3 Zrotation Xrotation Yrotation
                    JOINT LeftHandIndex1
                    {
                      OFFSET 5.21684 -0.091368 0.999158
                      CHANNELS 3 Zrotation Xrotation Yrotation
                      JOINT LeftHandIndex2
                      {
                        OFFSET 3.61937 0 0
                        CHANNELS 3 Zrotation Xrotation Yrotation
                        JOINT LeftHandIndex3
                        {
                          OFFSET 2.0521 0 0
                          CHANNELS 3 Zrotation Xrotation Yrotation
                          End Site
                          {
                            OFFSET 1.805 0 0
                          }
                        }
                      }
                    }
                  }
                  JOINT LeftInHandMiddle
                  {
                    OFFSET 3.38211 0.517263 0.756737
                    CHANNELS 3 Zrotation Xrotation Yrotation
                    JOINT LeftHandMiddle1
                    {
                      OFFSET 5.17411 -0.084 0.313895
                      CHANNELS 3 Zrotation Xrotation Yrotation
                      JOINT LeftHandMiddle2
                      {
                        OFFSET 3.94947 0 0
                        CHANNELS 3 Zrotation Xrotation Yrotation
                        JOINT LeftHandMiddle3
                        {
                          OFFSET 2.47579 0 0
                          CHANNELS 3 Zrotation Xrotation Yrotation
                          End Site
                          {
                            OFFSET 1.975 0 0
                          }
                        }
                      }
                    }
                  }
                  JOINT LeftInHandRing
                  {
                    OFFSET 3.36516 0.537895 -0.128947
                    CHANNELS 3 Zrotation Xrotation Yrotation
                    JOINT LeftHandRing1
                    {
                      OFFSET 4.63474 -0.022105 -0.478947
                      CHANNELS 3 Zrotation Xrotation Yrotation
                      JOINT LeftHandRing2
                      {
                        OFFSET 3.44238 0 0
                        CHANNELS 3 Zrotation Xrotation Yrotation
                        JOINT LeftHandRing3
                        {
                          OFFSET 2.3881 0 0
                          CHANNELS 3 Zrotation Xrotation Yrotation
                          End Site
                          {
                            OFFSET 1.857 0 0
                          }
                        }
                      }
                    }
                  }
                  JOINT LeftInHandPinky
                  {
                    OFFSET 3.16105 0.469368 -1.20179
                    CHANNELS 3 Zrotation Xrotation Yrotation
                    JOINT LeftHandPinky1
                    {
                      OFFSET 4.14105 -0.022105 -1.09053
                      CHANNELS 3 Zrotation Xrotation Yrotation
                      JOINT LeftHandPinky2
                      {
                        OFFSET 2.75653 0 0
                        CHANNELS 3 Zrotation Xrotation Yrotation
                        JOINT LeftHandPinky3
                        {
                          OFFSET 1.74189 0 0
                          CHANNELS 3 Zrotation Xrotation Yrotation
                          End Site
                          {
                            OFFSET 1.645 0 0
                          }
                        }
                      }
                    }
                  }
                }
              }
            }
          }
        }
      }
    }
  }
}
MOTION
Frames: 3
Frame Time: 0.00833333
5.999935453230772282e+02 -1.178072855659467733e-02 7.341028247304211274e-02 1.238196123020294248e-01 -1.053734002797151736e-01 -3.994157220317641477e-02 -5.608262055465017271e-02 -2.172533894625568729e-01 -6.749438537536008031e-02 1.672505718340602451e-02 5.275467587753917414e-03 -2.100209269061203976e-01 -1.263010836918571911e-01 8.013330618085358348e-02 4.832508052319460234e-01 1.867327363356901804e-01 -6.950684182564731417e-02 1.712097818153791168e-02 -3.336242038753797767e-01 4.091322615307326632e-02 4.183823833944803616e-01 -6.319591699938871543e-02 -1.115791088963307143e-01 -1.266274606114762002e-01 -3.558432756986903978e-02 -4.900252029290652622e-02 -1.414552741504009337e-01 -4.577704946654013139e-03 -5.221748062913346422e-03 -3.965969569706399162e-02 -7.947068840858521541e-03 -8.222366090078160258e-03 -6.293137967280167111e-02 5.718841422189414186e-04 -5.426325757680356895e-03 1.472265137336289248e-02 -2.693121391331878417e-02 7.809338133584108055e-02 -7.605646936979208739e-02 1.962990111856898704e-03 -9.327657977780857979e-02 2.668069467216397928e-01 1.390259754459406347e-02 3.453292797048648603e-03 1.328878083908514307e-01 1.419869214993044193e-01 -8.497914469436844420e-02 4.333249410368236743e-01 -2.182982630229445276e-01 6.386789985078900056e-01 -5.013301451679097465e-01 2.731033142075034448e-01 3.751047265350206383e-01 2.830358163766610868e-01 0.000000000000000000e+00 0.000000000000000000e+00 0.000000000000000000e+00 -1.922311554167020015e-16 1.298984747967830401e-15 0.000000000000000000e+00 -3.581635843331694392e-15 4.331622818453224664e-16 0.000000000000000000e+00 -5.607974258015119972e-16 -1.769995003765866487e-16 8.792148091335225172e-17 0.000000000000000000e+00 0.000000000000000000e+00 0.000000000000000000e+00 0.000000000000000000e+00 -4.901555456973239260e-16 1.146798642217001737e-15 0.000000000000000000e+00 2.945456255621183171e-17 -4.654891632503465954e-16 -5.607974258015119972e-16 -1.769995003765866487e-16 8.792148091335225172e-17 0.000000000000000000e+00 -5.959138736550703982e-16 4.421860777263401277e-16 0.000000000000000000e+00 9.164654175873376672e-16 1.153927357530906071e-15 0.000000000000000000e+00 9.224396849188018708e-16 1.150771515825066795e-16 -5.607974258015119972e-16 -1.769995003765866487e-16 8.792148091335225172e-17 0.000000000000000000e+00 0.000000000000000000e+00 0.000000000000000000e+00 0.000000000000000000e+00 -8.356860655294336384e-16 1.662908819586633190e-15 0.000000000000000000e+00 -2.358822641845700085e-15 4.993002405136397639e-16 -5.607974258015119972e-16 -1.769995003765866487e-16 8.792148091335225172e-17 0.000000000000000000e+00 0.000000000000000000e+00 0.000000000000000000e+00 0.000000000000000000e+00 1.078448676475613473e-15 3.524519558639635508e-16 0.000000000000000000e+00 -4.645590994732580135e-16 1.587864189051050192e-15 -2.812861315986419156e-02 4.750332549761555195e-02 9.416313627848976742e-02 -5.966951144144214819e-02 3.396308154331737633e-02 6.283582576661633778e-02 -6.740643067916202158e-01 -2.175076292835773084e-01 -1.036769635239164655e+00 2.123580997016492611e-01 1.542343645202476077e-01 -3.567652547272334163e-01 0.000000000000000000e+00 0.000000000000000000e+00 0.000000000000000000e+00 2.431213255023547619e-16 4.319248185924355317e-16 0.000000000000000000e+00 -3.425875696490237089e-16 -9.191147675281721846e-16 0.000000000000000000e+00 5.047487826545056954e-16 -1.887042071247631212e-16 -3.335632828430694855e-16 0.000000000000000000e+00 0.000000000000000000e+00 0.000000000000000000e+00 0.000000000000000000e+00 -4.018919201408251025e-17 2.753056198051249843e-17 0.000000000000000000e+00 5.501712735148832529e-16 2.966292982135608071e-16 5.047487826545056954e-16 -1.887042071247631212e-16 -3.335632828430694855e-16 0.000000000000000000e+00 7.310261656858435288e-17 -4.198248771319462907e-16 0.000000000000000000e+00 -9.093795537007801124e-17 -7.953120005513428094e-16 0.000000000000000000e+00 1.185122610139449645e-15 -8.372001762073103423e-16 5.047487826545056954e-16 -1.887042071247631212e-16 -3.335632828430694855e-16 0.000000000000000000e+00 0.000000000000000000e+00 0.000000000000000000e+00 0.000000000000000000e+00 -5.024093489616583150e-16 5.049483287767323820e-16 0.000000000000000000e+00 1.597901899989279227e-15 7.750372113062711019e-16 5.047487826545056954e-16 -1.887042071247631212e-16 -3.335632828430694855e-16 0.000000000000000000e+00 0.000000000000000000e+00 0.000000000000000000e+00 0.000000000000000000e+00 8.870482310618387378e-16 -1.297523643946079034e-15 0.000000000000000000e+00 -7.354391373052256401e-16 -1.085933898641033031e-15
5.999908175463842781e+02 -1.335807681788580593e-02 7.817385218633972344e-02 1.377411537285320453e-01 -9.151520601690089907e-02 -6.341502483660101108e-02 -3.354488421636385442e-02 -2.171711700770778686e-01 -6.242949931971573940e-02 1.266838199020813537e-02 1.157749620275470501e-02 -1.611261814185765417e-01 -9.693304357145947348e-02 5.706826664383085612e-02 4.358267030131315889e-01 2.033804487223283830e-01 -7.624527440168882286e-02 1.795862786875375081e-02 -3.452505002360130582e-01 4.117816789950112799e-02 4.305549172083761866e-01 -7.336405843767533630e-02 -1.215397782790371278e-01 -1.195518279506894710e-01 -2.315497557344500107e-02 -5.470187694649036175e-02 -1.357045354037753615e-01 -1.775219301782568959e-03 -5.523639876066402908e-03 -3.797693955348550171e-02 -3.287264968410868668e-03 -7.804449533201994471e-03 -6.065910967931580772e-02 -1.692722034810805517e-04 -5.590078164775975911e-03 1.568628337965854297e-02 -3.173349120966550280e-02 7.442057580403493855e-02 -1.135069424691752815e-01 -1.889062180538369010e-02 -1.115003636627335259e-01 3.149503818231063068e-01 9.256580678711737349e-04 -9.184023091884799608e-03 1.595797436971782002e-01 8.823145668780570106e-02 -1.329951467335824533e-01 3.705555866626981665e-01 -2.215371903557354916e-01 6.979193662556845146e-01 -4.715474067622806853e-01 2.296384263359771694e-01 2.438488785932322600e-01 2.255489540042596164e-01 0.000000000000000000e+00 0.000000000000000000e+00 0.000000000000000000e+00 2.863303817151955068e-16 1.507876076166829879e-15 0.000000000000000000e+00 -3.002466939358123419e-15 9.682417363557949391e-16 0.000000000000000000e+00 -6.608687899683626834e-16 4.354356613777362269e-16 -2.040755018983829417e-17 0.000000000000000000e+00 0.000000000000000000e+00 0.000000000000000000e+00 0.000000000000000000e+00 -7.335000491349441816e-16 1.495240205515644629e-15 0.000000000000000000e+00 4.904551448299750195e-17 -2.991602518368706722e-16 -6.608687899683626834e-16 4.354356613777362269e-16 -2.040755018983829417e-17 0.000000000000000000e+00 -4.954129629208944255e-16 2.508508203669344336e-16 0.000000000000000000e+00 8.452883262618392057e-16 1.059096946035440237e-15 0.000000000000000000e+00 9.266733726102282370e-16 5.307179975139791470e-16 -6.608687899683626834e-16 4.354356613777362269e-16 -2.040755018983829417e-17 0.000000000000000000e+00 0.000000000000000000e+00 0.000000000000000000e+00 0.000000000000000000e+00 -9.294902570120400250e-16 2.110076312482109854e-15 0.000000000000000000e+00 -2.419060773773902057e-15 6.432555346243815522e-16 -6.608687899683626834e-16 4.354356613777362269e-16 -2.040755018983829417e-17 0.000000000000000000e+00 0.000000000000000000e+00 0.000000000000000000e+00 0.000000000000000000e+00 8.507638702905629486e-16 2.867235183624171661e-16 0.000000000000000000e+00 -6.848770930025681256e-16 2.024186229451009362e-15 -4.232488829578257700e-02 6.871162694835991624e-02 1.111450572491352318e-01 -2.500457861380401409e-02 2.660964125944128428e-02 2.820588599424376716e-02 -6.441344022819843751e-01 -1.599792558603791714e-01 -1.038483184569100271e+00 2.134382696244838395e-01 1.784458593366330670e-01 -3.727916536693735572e-01 0.000000000000000000e+00 0.000000000000000000e+00 0.000000000000000000e+00 1.367963531505575306e-16 3.140259901311850333e-16 0.000000000000000000e+00 -5.631889805528569671e-16 -1.068052177436710944e-15 0.000000000000000000e+00 7.227469566782068297e-16 -3.067731278492384180e-16 -4.272345496147871519e-16 0.000000000000000000e+00 0.000000000000000000e+00 0.000000000000000000e+00 0.000000000000000000e+00 -1.450897887485790229e-17 4.073799252310180530e-19 0.000000000000000000e+00 2.106170920611988969e-16 5.780368603179326333e-16 7.227469566782068297e-16 -3.067731278492384180e-16 -4.272345496147871519e-16 0.000000000000000000e+00 -5.799737032290385350e-17 -5.268628042810374306e-16 0.000000000000000000e+00 -4.304560172860451326e-18 -1.125475334724986868e-15 0.000000000000000000e+00 1.470366174049050628e-15 -8.394584584327064559e-16 7.227469566782068297e-16 -3.067731278492384180e-16 -4.272345496147871519e-16 0.000000000000000000e+00 0.000000000000000000e+00 0.000000000000000000e+00 0.000000000000000000e+00 -5.878020950400490124e-16 3.467511154464033311e-16 0.000000000000000000e+00 1.625276129178115564e-15 1.227225820769613279e-15 7.227469566782068297e-16 -3.067731278492384180e-16 -4.272345496147871519e-16 0.000000000000000000e+00 0.000000000000000000e+00 0.000000000000000000e+00 0.000000000000000000e+00 1.050886430419140392e-15 -1.436432406550713692e-15 0.000000000000000000e+00 -9.186459438809540547e-16 -8.151288427323518855e-16
5.999875196022873070e+02 -1.483727134085168799e-02 8.035056943520295369e-02 1.493421257738851982e-01 -7.298999990405702354e-02 -8.930396145268096331e-02 -7.866323522356022738e-03 -2.077433027424553380e-01 -5.586174554440108408e-02 5.746890934222381904e-03 1.588404221828259091e-02 -1.009211450404638305e-01 -6.352157389164958534e-02 2.972051737995822299e-02 3.741660995451505101e-01 2.159140274025024286e-01 -7.866166695131616982e-02 2.272595380174931984e-02 -3.452023621144258425e-01 4.162973842620674297e-02 4.273294579002688831e-01 -7.816634139120018365e-02 -1.289539824785839173e-01 -1.063021486489725553e-01 -8.911218698708511451e-03 -5.799719395217907414e-02 -1.273467262793920862e-01 1.319298551683938548e-03 -5.283214963598537386e-03 -3.555504099287204456e-02 1.861865632920028327e-03 -6.478498274751631238e-03 -5.730803431118178942e-02 -9.776160541120136431e-04 -5.741769675177236902e-03 1.639577374332196885e-02 -3.485639708405831316e-02 6.738637733821038756e-02 -1.448320140883665730e-01 -4.018162819339443637e-02 -1.271838760093246812e-01 3.580609031827663435e-01 -1.088834893351456161e-02 -2.275630535233278198e-02 1.880537938153069022e-01 2.611859191391834728e-02 -1.854514123662756864e-01 2.953468322398589141e-01 -2.235249945365013202e-01 7.456355130183327518e-01 -4.246701283122380488e-01 1.832294469053535879e-01 1.055360746665157667e-01 1.601863462318738052e-01 0.000000000000000000e+00 0.000000000000000000e+00 0.000000000000000000e+00 7.194778725152292523e-16 1.651098124158430654e-15 0.000000000000000000e+00 -2.287495733849396843e-15 1.479894694895846907e-15 0.000000000000000000e+00 -7.199922114910874167e-16 1.015538267633143990e-15 -1.194446884459114939e-16 0.000000000000000000e+00 0.000000000000000000e+00 0.000000000000000000e+00 0.000000000000000000e+00 -9.320598298966742436e-16 1.762492773587589379e-15 0.000000000000000000e+00 6.104834666559018254e-17 -1.291219455906651599e-16 -7.199922114910874167e-16 1.015538267633143990e-15 -1.194446884459114939e-16 0.000000000000000000e+00 -3.761494270824968579e-16 4.635370987352860079e-17 0.000000000000000000e+00 7.499589635616936280e-16 9.337590462002433729e-16 0.000000000000000000e+00 8.709270616705260408e-16 9.130099591196357920e-16 -7.199922114910874167e-16 1.015538267633143990e-15 -1.194446884459114939e-16 0.000000000000000000e+00 0.000000000000000000e+00 0.000000000000000000e+00 0.000000000000000000e+00 -9.938161528688989176e-16 2.481701193138424201e-15 0.000000000000000000e+00 -2.374276424237942074e-15 7.633025292646044743e-16 -7.199922114910874167e-16 1.015538267633143990e-15 -1.194446884459114939e-16 0.000000000000000000e+00 0.000000000000000000e+00 0.000000000000000000e+00 0.000000000000000000e+00 5.909300699613386242e-16 1.767118564656135847e-16 0.000000000000000000e+00 -8.828066634978661025e-16 2.382189256285128467e-15 -5.632343591392521137e-02 9.024297984982755649e-02 1.297487902292085438e-01 1.274248768745115529e-02 2.008669845571969120e-02 -9.693354855428718692e-03 -5.974561976147932940e-01 -9.575211444147829765e-02 -1.028558445514255126e+00 2.092829542885856764e-01 1.999597790400594322e-01 -3.756938316460162741e-01 0.000000000000000000e+00 0.000000000000000000e+00 0.000000000000000000e+00 2.326523965285723558e-17 1.944316938429744331e-16 0.000000000000000000e+00 -7.827905912579015636e-16 -1.169265138564019784e-15 0.000000000000000000e+00 9.342646368431487281e-16 -4.142229624717319218e-16 -5.081975668667697144e-16 0.000000000000000000e+00 0.000000000000000000e+00 0.000000000000000000e+00 0.000000000000000000e+00 8.340073802216912095e-18 -4.411873989406229881e-17 0.000000000000000000e+00 -1.545304268575278802e-16 8.210676988878240270e-16 9.342646368431487281e-16 -4.142229624717319218e-16 -5.081975668667697144e-16 0.000000000000000000e+00 -1.653891006489486837e-16 -6.138789831360936658e-16 0.000000000000000000e+00 7.788437954909149033e-17 -1.400130540746732218e-15 0.000000000000000000e+00 1.699382373889635265e-15 -8.035563867193430956e-16 9.342646368431487281e-16 -4.142229624717319218e-16 -5.081975668667697144e-16 0.000000000000000000e+00 0.000000000000000000e+00 0.000000000000000000e+00 0.000000000000000000e+00 -6.485276518740220469e-16 1.426741012708246561e-16 0.000000000000000000e+00 1.567931733181352874e-15 1.624707281554252630e-15 9.342646368431487281e-16 -4.142229624717319218e-16 -5.081975668667697144e-16 0.000000000000000000e+00 0.000000000000000000e+00 0.000000000000000000e+00 0.000000000000000000e+00 1.179327579406794366e-15 -1.528386617810976256e-15 0.000000000000000000e+00 -1.065652007330591829e-15 -5.057199256125014606e-16
